<?xml version="1.0" encoding="UTF-8"?>
<svg id="Layer_2" data-name="Layer 2" xmlns="http://www.w3.org/2000/svg" viewBox="0 0 476.72 154.06">
  <defs>
    <style>
      .cls-1 {
        fill: #fff;
        stroke-width: 0px;
      }
    </style>
  </defs>
  <g id="Layer_1-2" data-name="Layer 1">
    <path class="cls-1" d="m74.73,143.39s-27.38-10.17-63.49-48.19c-26.47-27.87-3.99-60.68,44.51-60.08,0,0-38.17,4.09-21.9,38.79,0,0,10.22,21.1,29.37-1.68,0,0-.01,31.7,20.04,27.04,20.06-4.66,29.43-29.83.47-38.49,0,0-9.78-2.28-17.4,3.42-7.62,5.7-20.23-.25-18.44-10.66,0,0,2.8-14.12,20.67-3.94s31.52,8.6,36.13-10.74c0,0,2.07-11.86-9-6.93,0,0,10.98-12.1,19.39.24,8.41,12.34,8.98,36.8-4.02,56.56-13,19.76,2.24,44.93,10.9,51.51,0,0-11.45-6.61-18.28-19.45-6.83-12.84-16.39-16.98-22.22-11.81s-4.91,15.67-2.07,26.01c0,0-17.51-39.88-32.73-38.15-15.22,1.73-3.03,16.5,1.51,21.88,8.92,10.56,26.55,24.65,26.55,24.65Z"/>
    <path class="cls-1" d="m461.39,24.74s7.17,3.88,3.05,15.09c0,0,5.76,1.26,5.06,8.91,0,0-.85-6.58,6.4-8.48,0,0-5.1-.79-7.84-8.84-2.76-8.13-6.67-6.68-6.67-6.68Z"/>
    <path class="cls-1" d="m160.71,121s-26.59,10.81-37.45-12.07c0,0-9.11-14.04.37-29.7,0,0,9.53,17.29,23.6,6.33,0,0,5.99-3.38,4.03-11.66-1.96-8.28-8.5-4.91-9.4-2.96,0,0,8.66-7.29.82-18.68-3.8-5.52-7.08,17.89-19.74,22.17,0,0,12.77-22.26,13.37-28.96.6-6.71-.38-19.63,9.88-22.19,10.26-2.56,6.97,20.85,17.33,19.01,10.35-1.83,17.75-15.28,5.45-23.17-12.3-7.9,1.56-17.54,9.53-18.89,7.97-1.35,19.38,3.23,10.85,25.13-8.53,21.9,7.95,17.35,10.69,12.94,2.74-4.41,8.57-16.83,11.5-19.17,0,0-.49,22.62,10.84,16.97,11.33-5.64,19.66-19.28,19.66-19.28,0,0,12.76,26.99-7.7,74.48-1.63,3.24-5.76,9.69-3.99,12.38,0,0,1.53,4.04,11.3.14,0,0-5.58,3.43-1.84,20.9,0,0-6.27-16.63-14.89-18.1-8.62-1.47-10.74-11.1-10.03-13.42,0,0,4.26,8.95,9.54,5.85,7.27-4.28,26.91-50.33-1.02-52.11,0,0-35.06-4.65-32.93,25.34,0,0-.82,15.75,8.64,20.55,0,0-13.56-1.26-12.88-18.73.68-17.47-2.78-27.5-13.24-27.01-10.46.5-18.91,14.44-5.4,32.86,13.51,18.43,19.8,14.13,19.8,14.13,0,0-8.72,20.46,16.35,15.89l14.32,15.47s-8.18-7.75-22.67-9.33c-14.49-1.58-30.85-17.08-33.48-18.36s-20.34-8.68-25.8,3.74,3.75,18.5,24.61,19.52Z"/>
    <ellipse class="cls-1" cx="225.81" cy="13.08" rx="7.69" ry="6.38" transform="translate(209.94 238.71) rotate(-89.29)"/>
    <path class="cls-1" d="m262.64,133.65l4.53-19.13s11.14-9.41,17.93-30.2c5.56-17.02-.35-34.85-6.7-46.79-2.61-4.92-5.89-9.44-9.62-13.58-4.67-5.19-12.37-16.08,5.47-15.99,25.55.13,31.38,19.67,20.84,45.32-3.44,8.37-5.34,43.89,14.48,49.59,19.82,5.71,28.15-16.74,28.23-23.37.08-6.63.32-26.13.32-26.13,0,0,7.06,28.16,19.27,18.95,3.38-2.73,2.03-6.6,2.03-6.6,0,0,10.04,8.31-2.56,17.91,0,0-4.43,11.26,1.35,16.79,0,0-6.76.07-8.31-4.8,0,0-3.7,11.59-3.09,15.15,0,0-3.77-8.61-9.79-5.45-6.02,3.16-28.61,27.76-33.48,29.47,0,0,18.27-14.64,5.61-22.71-12.66-8.07-40.11-3.97-46.52,21.56Z"/>
    <path class="cls-1" d="m335.07,46.54s-2.57-8.46-7.86-10.86c-8.33-3.78-10.14-19.5-.65-22,9.49-2.5,12.3,6.23,10.06,13.74-2.25,7.51-4.4,7.41-1.54,19.13Z"/>
    <path class="cls-1" d="m405.37,99.46c-15.76,9.55-15.6-40.05,9.59-48.74-19.03,3.54-10.42-11.52-21.46-6.61-6.77,3.01-5.72-9.69-7.23-14.6,1.52,8.78-12.26,15.68-12.19,7.04.07-9.19-4.29-11.67-14.01-9.73-9.72,1.95-10.15,20.62,3.35,20.6,13.49-.02,21.04,15.02,21.04,15.02,5.9,15.48-.5,20.08-5.46,21.42,6.42.59,10.52,6.91-2.26,18.38-15.76,14.14-23.53.54-23.53.54.71,22.19-13.18,28.83-21.84,30.82,10.51-1.59,11.09-3.31,16.68-5.44,7.52-2.53,11.46.42,13.46,3.48-.75-2.76-1.16-6.42.17-10.11,2.7-7.53,15.25-9.77,29.66-8.72,41.64,3.03-.8,21.65-1.15,21.96,30.8-13.48,37.88-15.41,37.88-15.41"/>
    <path class="cls-1" d="m414.97,50.72s-20.82,1.69-23.01,32.98c-2.19,31.28,30.89,35.11,30.89,35.11,0,0-17.07,8.11-29.76,13.99-16.08,7.45-14.55,21.26-14.55,21.26,0,0,5.62-19.23,36.41-25.4,30.79-6.17,76.64-23.96,57.07-75.5,0,0,5.38,51.87-34.89,50.73,0,0-15.21.65-7.25-17.12,0,0-7.3,13.24-20.62,5.33-19.97-11.87-10.83-30.15,5.72-41.37Z"/>
  </g>
</svg>